<?xml version="1.0" standalone="no"?>
<!DOCTYPE svg PUBLIC "-//W3C//DTD SVG 20010904//EN"
 "http://www.w3.org/TR/2001/REC-SVG-20010904/DTD/svg10.dtd">
<svg version="1.0" xmlns="http://www.w3.org/2000/svg"
 width="550.000000pt" height="550.000000pt" viewBox="0 0 550.000000 550.000000"
 preserveAspectRatio="xMidYMid meet">
<metadata>
Created by potrace 1.11, written by Peter Selinger 2001-2013
</metadata>
<g transform="translate(0.000000,550.000000) scale(0.100000,-0.100000)"
fill="#000000" stroke="none">
<path d="M2623 5380 c-40 -5 -88 -17 -110 -29 -21 -11 -64 -25 -96 -30 -32 -6
-70 -20 -84 -31 -14 -11 -35 -20 -46 -20 -11 0 -28 -6 -36 -13 -9 -7 -34 -19
-56 -26 -84 -29 -138 -58 -193 -103 -18 -16 -38 -28 -44 -28 -14 0 -94 -50
-164 -102 -28 -21 -55 -38 -60 -38 -5 0 -20 -9 -34 -20 -14 -11 -34 -20 -46
-20 -23 0 -42 -19 -64 -63 -22 -44 -73 -83 -117 -90 -22 -4 -58 -20 -81 -37
-39 -28 -41 -33 -40 -75 2 -37 -3 -49 -27 -75 -16 -16 -34 -30 -40 -30 -6 0
-26 -15 -44 -34 -20 -20 -46 -36 -66 -39 -50 -8 -121 -53 -161 -103 -32 -38
-38 -56 -52 -141 -15 -95 -16 -99 -63 -148 -32 -34 -50 -62 -54 -88 -4 -20
-11 -40 -15 -42 -11 -7 -11 -464 -1 -485 5 -8 2 -46 -5 -85 -7 -38 -16 -97
-20 -130 -3 -33 -15 -86 -25 -117 -11 -32 -19 -79 -19 -106 0 -58 -9 -68 -101
-110 -74 -35 -79 -43 -79 -133 0 -60 15 -84 56 -91 l21 -3 -18 -75 c-19 -80
-25 -185 -10 -194 5 -3 12 -38 16 -78 4 -39 13 -86 21 -103 13 -32 114 -145
129 -145 18 0 75 -52 75 -69 0 -10 9 -26 20 -36 11 -10 20 -28 20 -41 0 -13 4
-26 10 -29 5 -3 10 -22 10 -41 0 -28 5 -36 25 -44 15 -6 25 -17 25 -29 0 -11
4 -23 10 -26 6 -3 10 -16 10 -28 1 -33 179 -207 212 -207 17 0 48 -31 48 -48
0 -6 16 -24 36 -40 33 -28 63 -85 64 -124 0 -10 21 -64 46 -120 25 -57 61
-141 79 -188 44 -115 78 -180 110 -210 15 -14 36 -43 47 -65 33 -65 120 -181
153 -204 16 -12 62 -56 100 -99 101 -112 189 -188 248 -215 65 -31 317 -105
416 -122 61 -11 93 -11 185 0 143 18 247 51 377 121 258 139 455 297 667 534
122 136 232 297 232 341 0 24 83 97 136 119 24 11 64 39 88 63 25 24 62 50 83
59 21 9 58 24 83 34 61 24 68 31 92 81 15 32 19 55 15 85 -9 64 1 91 36 108
18 8 38 27 44 41 8 17 24 29 44 33 17 3 45 18 62 32 36 31 117 151 117 175 0
9 7 22 15 29 8 7 15 20 15 30 0 10 7 34 15 53 17 41 19 155 5 282 -5 47 -5 84
1 90 5 5 9 18 9 30 0 12 4 25 9 31 20 21 31 164 20 262 -6 53 -14 103 -19 111
-4 8 -5 42 -2 77 3 43 1 69 -8 78 -6 9 -18 61 -25 116 -10 74 -21 117 -43 160
-29 57 -30 63 -25 148 4 62 2 91 -6 96 -6 4 -11 22 -11 41 0 19 -4 37 -10 40
-5 3 -10 23 -10 44 0 20 -7 46 -15 57 -10 13 -14 45 -15 104 0 55 -5 93 -13
105 -8 11 -16 30 -19 42 -5 19 -1 24 25 31 26 7 34 15 41 45 8 31 6 44 -12 78
-12 23 -22 46 -22 53 0 7 -31 49 -70 93 -38 44 -70 85 -70 91 0 5 -16 22 -35
36 -24 18 -35 35 -35 52 0 17 -15 38 -47 67 -123 111 -153 146 -153 177 0 17
-5 30 -12 30 -29 0 -238 111 -253 134 -9 14 -38 35 -63 47 -26 13 -65 38 -86
56 -22 18 -45 33 -53 33 -7 0 -50 33 -96 74 -45 40 -103 83 -127 95 -25 13
-63 33 -85 46 -85 51 -115 65 -154 71 -23 4 -44 11 -47 15 -3 5 -22 9 -42 9
-21 0 -47 6 -58 14 -11 8 -54 18 -95 21 -40 4 -80 12 -86 17 -7 6 -63 13 -123
16 -61 3 -113 9 -116 13 -6 10 -87 10 -191 -1z m-62 -416 c10 -9 31 -17 47
-18 15 -1 41 -9 56 -19 21 -14 37 -17 64 -12 26 5 32 9 21 16 -8 5 -9 9 -3 9
6 0 23 -9 38 -21 14 -11 30 -18 35 -15 15 9 61 -12 59 -26 -2 -7 4 -14 12 -14
8 -1 22 -2 30 -3 13 -1 13 -2 0 -11 -8 -5 -12 -10 -7 -11 19 -4 23 -6 45 -18
27 -14 55 1 45 25 -3 8 1 14 11 14 9 0 16 -6 16 -14 0 -16 35 -31 63 -27 10 1
17 -4 17 -13 0 -9 8 -16 19 -16 10 0 24 -7 31 -15 14 -17 46 -20 55 -6 7 12
79 -36 124 -83 19 -20 42 -36 50 -36 10 0 8 7 -9 25 -13 14 -20 28 -16 32 4 4
15 -1 24 -13 23 -28 67 -45 80 -32 13 13 45 2 82 -29 17 -13 30 -20 30 -14 0
5 -4 13 -10 16 -5 3 -10 11 -10 16 0 17 85 -47 99 -75 8 -14 20 -26 26 -26 15
0 65 -53 65 -68 0 -7 7 -12 16 -12 8 0 13 4 9 9 -3 5 0 13 6 17 7 4 9 3 6 -3
-4 -6 3 -13 16 -17 12 -3 34 -16 48 -30 15 -14 30 -22 35 -18 4 4 4 2 1 -4 -3
-6 5 -27 19 -47 13 -20 29 -48 34 -62 7 -20 15 -25 29 -20 14 4 26 -3 43 -25
14 -17 33 -32 42 -34 10 -1 24 -13 32 -27 16 -29 18 -42 4 -34 -6 3 -7 -1 -4
-9 3 -9 14 -16 23 -16 9 0 28 -22 44 -50 29 -54 33 -65 17 -55 -5 3 -10 4 -10
2 0 -12 90 -186 99 -192 6 -3 11 -12 11 -20 0 -7 10 -35 22 -62 24 -53 25 -73
8 -118 -10 -26 -13 -28 -21 -12 -6 9 -19 17 -29 17 -11 0 -26 12 -34 28 -8 16
-22 34 -30 41 -9 8 -16 22 -16 33 0 21 -48 71 -61 63 -4 -3 -13 5 -19 17 -11
22 -10 22 4 4 9 -11 16 -14 16 -7 0 19 -29 71 -40 71 -5 0 -12 11 -16 25 -5
19 -12 25 -27 23 -15 -2 -26 5 -35 25 -16 33 -32 35 -32 5 l0 -23 -19 24 c-11
14 -30 25 -45 26 -24 1 -26 -2 -21 -23 5 -21 3 -23 -12 -18 -10 4 -30 10 -45
13 -14 3 -39 18 -54 34 -15 16 -32 29 -36 29 -11 0 -57 51 -58 63 0 20 -43 67
-58 65 -9 -2 -17 2 -17 9 0 6 -4 15 -9 20 -5 5 -6 3 -2 -4 10 -18 -4 -16 -41
7 -20 12 -35 15 -39 9 -4 -6 -14 -3 -26 8 -16 14 -22 15 -26 5 -3 -10 -8 -7
-19 7 -8 12 -19 21 -25 21 -7 0 -6 -6 2 -15 10 -12 9 -15 -5 -15 -10 0 -33 17
-51 38 -25 28 -36 34 -42 24 -7 -10 -11 -10 -22 2 -7 10 -21 14 -35 10 -13 -3
-26 -1 -29 5 -22 35 -30 -15 -11 -61 4 -10 3 -18 -3 -18 -5 0 -12 7 -16 15 -3
8 -14 15 -25 15 -11 0 -23 5 -26 10 -7 12 -25 13 -25 2 0 -4 21 -31 46 -60 39
-45 45 -57 41 -86 -2 -19 -7 -38 -11 -44 -9 -14 -72 17 -84 42 -21 44 -155
188 -200 215 -89 54 -153 107 -196 161 -12 15 -21 20 -24 12 -5 -15 -22 -5
-22 13 0 7 -20 33 -44 57 -24 24 -46 54 -50 68 -8 30 -110 115 -126 105 -6 -4
-14 1 -17 11 -6 24 -103 89 -104 72 0 -7 -5 1 -11 17 -6 17 -20 40 -31 52 -24
27 -17 39 12 23 18 -9 22 -7 31 15 10 28 25 32 37 12 13 -22 41 -27 58 -11 13
14 20 14 47 3 24 -10 33 -10 36 -1 2 7 11 12 20 12 15 0 15 2 2 10 -12 8 -13
10 -1 10 8 0 22 -7 32 -16z m-276 -190 c6 -6 35 -20 65 -30 30 -10 61 -23 69
-30 19 -17 6 -33 -22 -26 -22 5 -22 5 -3 -17 14 -15 26 -19 40 -15 17 6 19 4
9 -8 -10 -12 -4 -22 32 -58 25 -24 45 -40 45 -34 0 6 -11 21 -25 34 -14 13
-25 28 -25 34 1 6 28 -18 61 -54 37 -40 62 -61 67 -54 5 8 16 5 37 -7 17 -11
26 -19 21 -19 -6 0 -5 -5 2 -12 20 -20 13 -32 -8 -13 -11 10 -20 13 -20 7 0
-6 4 -13 9 -16 5 -3 19 -23 31 -43 22 -37 22 -38 1 -19 -18 16 -21 17 -21 3 0
-9 5 -19 10 -22 10 -6 5 -58 -6 -77 -6 -9 -54 24 -87 61 -37 40 -62 65 -88 87
-13 11 -31 31 -39 42 -14 21 -37 32 -25 12 3 -6 -1 -7 -9 -4 -9 3 -16 17 -16
29 0 14 -7 26 -19 30 -10 3 -45 31 -77 63 -33 32 -72 66 -87 76 -15 9 -32 28
-37 42 -5 13 -14 23 -19 22 -5 -2 -9 2 -10 7 0 6 14 10 32 11 17 0 41 1 52 2
19 2 19 3 3 16 -10 7 -15 16 -12 19 7 6 52 -19 69 -39z m80 -4 c3 -6 -1 -7 -9
-4 -18 7 -21 14 -7 14 6 0 13 -4 16 -10z m-275 -49 c0 -23 17 -38 50 -43 19
-2 26 -10 28 -31 2 -19 8 -27 17 -23 9 3 12 0 9 -9 -9 -23 50 -100 67 -89 4 2
5 -5 2 -17 -5 -18 -3 -20 16 -14 18 5 21 3 19 -17 -2 -17 3 -24 18 -26 12 -2
30 -13 40 -24 11 -12 13 -18 7 -14 -25 14 -13 -34 17 -76 20 -27 27 -44 19
-48 -8 -5 -7 -13 2 -28 18 -28 -1 -52 -25 -33 -8 7 -20 10 -25 7 -13 -8 -89
46 -119 85 -34 42 -52 38 -52 -11 0 -53 -39 -97 -70 -80 -11 6 -27 22 -36 35
-19 29 -38 33 -32 7 5 -19 -38 -49 -44 -30 -5 14 -38 -2 -38 -18 0 -21 -16
-17 -33 10 -14 21 -14 26 -2 36 21 18 10 27 -25 22 -35 -5 -39 -17 -10 -32 11
-6 20 -21 20 -33 0 -18 -5 -22 -25 -22 -14 1 -28 5 -32 8 -3 4 -16 7 -28 7
-12 0 -30 9 -40 20 -10 11 -26 22 -35 25 -10 3 -23 19 -29 35 -5 17 -17 30
-25 30 -9 0 -16 8 -16 19 0 10 -6 21 -14 24 -21 8 -28 64 -12 100 27 59 31 62
56 37 l23 -23 24 32 c13 17 31 31 39 31 8 0 14 5 14 11 0 6 10 19 23 29 16 13
25 15 35 8 15 -13 28 -2 34 27 4 23 38 34 38 12 0 -10 12 -14 40 -14 22 0 40
4 40 9 0 6 -8 7 -17 4 -10 -4 -14 -4 -11 0 4 4 3 15 -2 24 -12 22 9 43 30 30
18 -11 40 6 40 31 0 11 7 19 15 19 8 0 15 -8 15 -19z m1844 -347 c3 -8 2 -12
-4 -9 -6 3 -10 10 -10 16 0 14 7 11 14 -7z m-2381 -354 c5 0 16 -8 23 -17 11
-15 16 -16 33 -6 17 11 24 9 47 -17 15 -16 31 -27 35 -25 4 3 12 -8 19 -24 13
-33 57 -74 70 -66 5 3 21 -7 37 -21 15 -15 22 -24 14 -19 -9 5 -12 3 -9 -6 5
-15 158 -95 246 -129 78 -30 239 -41 456 -30 102 4 189 11 194 14 5 3 10 17
10 30 0 22 -7 26 -57 36 -73 15 -81 17 -81 30 0 5 6 10 13 10 32 -1 188 -28
194 -34 3 -3 1 -6 -5 -6 -7 0 -12 -4 -12 -9 0 -9 66 -15 272 -26 88 -5 144
-23 182 -57 22 -20 36 -23 36 -9 0 5 -8 12 -19 16 -10 3 -26 14 -35 24 -17 19
-15 19 56 23 l73 3 68 -70 c68 -69 89 -97 93 -123 1 -8 4 -15 6 -16 19 -14
133 -122 133 -126 3 -23 19 -49 34 -53 10 -2 18 -12 18 -21 0 -14 -16 -16
-126 -16 -162 0 -303 -9 -315 -21 -6 -5 -30 -9 -55 -9 -26 0 -69 -3 -98 -6
-44 -6 -53 -11 -63 -34 -6 -16 -22 -38 -35 -50 -14 -13 -21 -29 -18 -41 6 -21
18 -25 28 -9 8 13 35 13 35 0 0 -6 -20 -30 -45 -54 -25 -25 -45 -47 -45 -51 0
-4 -9 -19 -19 -34 -10 -14 -21 -40 -22 -56 l-4 -30 54 2 c50 2 134 33 147 54
8 14 36 11 31 -3 -2 -7 -12 -12 -22 -10 -9 2 -14 -1 -11 -6 3 -5 -8 -19 -24
-31 -17 -12 -30 -30 -30 -40 0 -14 9 -9 43 21 23 22 55 47 71 55 16 8 47 28
69 44 22 16 48 29 59 29 27 0 98 24 98 32 0 5 -28 8 -62 8 l-63 0 30 25 c17
13 40 24 52 25 12 0 24 4 28 9 3 6 27 13 53 16 26 3 85 14 132 25 81 17 177
15 209 -4 6 -4 48 -7 93 -8 87 -1 142 -14 132 -29 -9 -15 13 -36 63 -61 41
-21 46 -21 57 -6 19 26 62 33 83 13 15 -16 16 -21 1 -79 -12 -44 -15 -87 -11
-154 6 -102 -3 -126 -42 -116 -19 5 -23 1 -28 -23 -3 -17 0 -34 8 -43 8 -8 21
-37 30 -65 10 -27 24 -58 33 -68 23 -26 32 -128 21 -247 -6 -58 -12 -159 -14
-225 -9 -311 -14 -328 -84 -340 -19 -3 -38 -8 -42 -10 -4 -3 -7 -32 -8 -66 0
-33 -3 -64 -5 -68 -3 -4 9 -5 26 -3 30 5 30 4 23 -29 -14 -61 -46 -153 -66
-185 -17 -28 -17 -33 -4 -38 14 -5 14 -10 1 -40 -13 -32 -30 -57 -140 -212
-165 -231 -249 -326 -411 -458 -167 -136 -346 -261 -420 -292 -31 -13 -35 -13
-35 1 0 19 2 19 -51 -7 -24 -11 -38 -23 -31 -25 22 -8 12 -23 -15 -22 -16 0
-22 3 -15 6 6 2 12 9 12 13 0 5 -16 2 -35 -6 -40 -16 -59 -18 -50 -5 3 5 0 13
-6 16 -6 4 -13 -2 -16 -14 -6 -24 -37 -28 -77 -10 -25 12 -27 11 -70 -28 -8
-7 -16 -9 -20 -6 -3 4 -46 8 -95 11 -82 3 -90 2 -104 -18 -14 -20 -19 -21 -49
-11 -18 5 -69 20 -113 31 -157 42 -193 65 -373 248 -173 175 -224 236 -265
318 -14 28 -37 58 -50 67 -26 17 -84 129 -112 217 -10 30 -28 73 -40 95 -28
52 -86 202 -84 218 1 7 -3 25 -9 40 -15 35 -15 40 -2 32 13 -8 13 51 0 75 -8
14 -6 21 6 28 13 7 16 19 12 56 -3 25 -2 46 2 46 4 0 10 13 12 30 3 16 1 30
-3 30 -12 0 -21 110 -10 124 16 19 -62 90 -91 83 -11 -3 -34 1 -50 9 -16 8
-37 12 -47 9 -11 -3 -28 3 -42 15 -22 19 -22 20 -4 18 11 -1 25 1 31 4 6 4 35
9 64 12 29 3 55 8 58 11 3 3 0 45 -7 93 -7 48 -15 109 -17 137 -2 27 -8 72
-14 101 -18 87 -11 453 9 478 7 8 14 34 17 58 2 24 11 90 19 148 8 58 15 121
16 140 1 19 9 42 16 51 8 9 13 23 11 30 -2 10 9 15 35 17 20 2 37 7 37 13 0 5
20 9 44 9 25 0 48 5 52 11 10 17 179 2 222 -20 78 -40 130 -61 153 -61 13 0
31 -5 39 -10 11 -7 7 -10 -17 -10 -48 0 -40 -15 15 -31 46 -12 339 -156 368
-180 8 -6 14 -14 14 -18 0 -9 -42 -8 -57 2 -9 5 -13 3 -13 -7 0 -22 -5 -21
-58 16 -70 48 -152 98 -191 114 -52 22 -169 29 -230 14 -46 -11 -126 -60 -172
-104 -17 -17 -34 -22 -24 -7 3 5 0 13 -6 17 -15 9 -29 -14 -29 -47 0 -14 -3
-29 -7 -33 -4 -3 -12 -22 -19 -41 -10 -31 -10 -35 6 -35 10 0 23 7 30 15 15
18 30 11 30 -14 0 -23 19 -41 36 -34 17 6 18 45 2 61 -18 18 93 152 127 152 3
0 5 -16 5 -35 0 -19 5 -35 10 -35 6 0 10 -9 10 -19 0 -11 22 -41 49 -67 33
-32 47 -53 44 -65 -3 -11 0 -19 6 -19 7 0 11 8 9 18 -3 14 5 17 44 17 59 0 97
33 130 112 12 29 27 53 34 53 14 0 114 -88 114 -101 0 -4 -23 -11 -50 -15 -28
-4 -53 -11 -56 -15 -4 -8 49 -12 179 -13 15 -1 27 -6 27 -12 0 -14 25 -26 34
-17 3 4 6 19 6 34 0 33 27 46 46 22 16 -21 18 -40 5 -48 -5 -3 -21 -26 -35
-51 -21 -37 -23 -46 -10 -51 8 -3 23 2 34 12 19 17 19 17 15 -11 -2 -16 -17
-54 -34 -84 -17 -30 -31 -60 -31 -67 0 -6 -5 -24 -12 -40 -6 -15 -12 -35 -14
-43 -2 -7 -12 -21 -22 -30 -11 -8 -25 -25 -31 -37 -10 -19 -9 -23 3 -23 8 0
18 9 21 20 5 15 14 20 33 18 23 -3 29 2 37 30 10 35 17 39 34 18 8 -10 9 -16
1 -21 -5 -3 -10 -16 -10 -29 0 -22 -20 -55 -52 -84 -10 -9 -18 -23 -18 -32 0
-8 -11 -32 -25 -52 -14 -20 -25 -41 -25 -46 0 -5 -7 -15 -15 -22 -8 -7 -15
-18 -15 -25 0 -7 -25 -52 -55 -100 -67 -107 -70 -134 -19 -193 19 -23 40 -42
45 -42 5 0 39 -25 75 -56 64 -54 92 -70 144 -82 41 -9 233 -10 260 -1 14 5 67
13 119 18 60 7 100 16 110 26 14 13 11 17 -27 32 -61 24 -54 48 15 48 28 0 55
3 59 8 15 14 24 7 14 -13 -5 -11 -14 -29 -20 -39 -6 -14 -5 -23 6 -31 12 -10
16 -7 25 19 7 20 18 31 30 31 11 0 19 7 19 16 0 10 6 13 18 10 12 -4 20 1 27
17 6 12 19 22 30 22 13 0 19 6 17 16 -2 12 9 18 38 23 95 15 43 79 -63 78
-201 0 -378 -50 -279 -78 15 -4 31 -6 35 -5 11 2 -27 -51 -47 -69 -18 -14 -51
3 -92 47 l-23 25 -36 -22 c-19 -12 -35 -25 -35 -30 0 -19 -32 -17 -57 4 -21
18 -27 33 -28 62 0 36 -2 39 -35 44 -19 4 -54 17 -77 31 -42 24 -42 24 -57 4
-10 -13 -18 -16 -23 -10 -5 6 -26 10 -48 10 -34 0 -40 3 -43 23 -4 28 -22 29
-22 1 0 -12 -4 -17 -11 -13 -13 7 -5 60 12 81 6 7 22 13 35 13 13 0 24 5 24
10 0 6 -4 10 -10 10 -13 0 -13 27 0 35 6 4 17 2 24 -4 11 -9 26 0 69 40 65 60
71 78 69 201 0 48 3 90 9 93 10 7 12 48 2 58 -3 4 -12 2 -19 -4 -7 -5 -14 -6
-17 -2 -8 12 4 63 14 64 5 1 14 2 21 3 22 2 20 26 -2 26 -15 0 -20 5 -17 14 3
8 11 59 17 113 9 82 8 118 -6 208 -29 189 -28 181 -3 198 l22 16 -25 38 c-14
21 -43 47 -64 58 -22 11 -41 22 -44 25 -15 15 -80 49 -145 75 -83 34 -319 77
-505 92 -85 7 -89 7 -195 -6 -64 -8 -109 -9 -125 -3 l-24 9 22 12 c18 10 22
20 22 60 0 54 21 85 38 55 12 -21 33 -9 25 14 -4 9 -17 28 -30 42 -25 27 -25
46 1 44 15 -2 16 0 3 15 -19 21 -22 39 -14 76 4 17 3 44 -2 61 -6 22 -4 51 6
96 13 51 21 66 41 76 35 16 40 15 44 -10 4 -28 28 -36 28 -9 0 11 -9 25 -20
31 -16 9 -18 14 -9 29 11 17 13 16 37 -6 14 -13 29 -23 35 -23z m-383 -30 c0
-6 -7 -13 -15 -16 -8 -4 -15 -13 -15 -22 0 -12 3 -13 12 -4 7 7 22 12 35 12
12 0 26 8 32 18 32 56 50 -94 22 -189 -11 -40 -16 -45 -36 -41 -17 3 -25 13
-29 37 -6 29 -10 33 -34 30 -17 -2 -26 -8 -24 -16 2 -9 -3 -8 -14 3 -16 16
-17 23 -6 63 7 25 12 52 12 61 0 17 40 73 53 73 4 1 7 -4 7 -9z m1021 -87 c13
-15 12 -15 -8 -4 -24 12 -29 21 -14 21 5 0 15 -7 22 -17z m312 -110 c-7 -2
-21 -2 -30 0 -10 3 -4 5 12 5 17 0 24 -2 18 -5z m-1358 -122 c3 -5 1 -12 -5
-16 -5 -3 -10 1 -10 9 0 18 6 21 15 7z m2605 -391 c0 -5 -7 -10 -15 -10 -8 0
-15 5 -15 10 0 6 7 10 15 10 8 0 15 -4 15 -10z m60 -4 c0 -3 -4 -8 -10 -11 -5
-3 -10 -1 -10 4 0 6 5 11 10 11 6 0 10 -2 10 -4z m-2470 -20 c0 -8 -4 -18 -10
-21 -5 -3 -10 3 -10 14 0 12 5 21 10 21 6 0 10 -6 10 -14z m640 -70 c0 -3 -4
-8 -10 -11 -5 -3 -10 -1 -10 4 0 6 5 11 10 11 6 0 10 -2 10 -4z m288 -58 c3
-18 -21 -30 -42 -22 -12 5 -12 9 2 25 19 21 35 20 40 -3z m-103 2 c-3 -5 -12
-7 -20 -3 -21 7 -19 13 6 13 11 0 18 -4 14 -10z m215 -5 c0 -8 -6 -15 -14 -15
-8 0 -16 7 -20 15 -4 10 1 15 14 15 11 0 20 -7 20 -15z m794 -14 c7 -11 -31
-36 -66 -43 -23 -4 -28 -2 -28 16 0 14 3 17 8 8 7 -9 13 -8 27 8 19 21 50 27
59 11z m-1209 -101 c3 -6 -1 -13 -10 -16 -19 -8 -30 0 -20 15 8 14 22 14 30 1z
m1245 -44 c0 -2 -7 -7 -16 -10 -8 -3 -12 -2 -9 4 6 10 25 14 25 6z m-2565
-226 c3 -5 2 -10 -4 -10 -5 0 -13 5 -16 10 -3 6 -2 10 4 10 5 0 13 -4 16 -10z
m3935 -220 c0 -10 4 -22 10 -25 11 -7 9 -95 -2 -95 -4 0 -8 -7 -8 -15 0 -8 -4
-15 -10 -15 -5 0 -10 5 -10 11 0 5 -4 8 -9 5 -23 -15 -22 122 1 151 13 16 28
7 28 -17z m-1555 -2260 c-3 -5 -13 -10 -21 -10 -8 0 -12 5 -9 10 3 6 13 10 21
10 8 0 12 -4 9 -10z m-125 -50 c0 -5 -4 -10 -10 -10 -5 0 -10 5 -10 10 0 6 5
10 10 10 6 0 10 -4 10 -10z"/>
<path d="M2765 4670 c3 -5 11 -10 16 -10 6 0 7 5 4 10 -3 6 -11 10 -16 10 -6
0 -7 -4 -4 -10z"/>
<path d="M3480 4545 c7 -9 15 -13 17 -11 7 7 -7 26 -19 26 -6 0 -6 -6 2 -15z"/>
<path d="M2980 4422 c0 -5 7 -13 16 -16 10 -4 14 -1 12 6 -5 15 -28 23 -28 10z"/>
<path d="M3108 4383 c7 -3 16 -2 19 1 4 3 -2 6 -13 5 -11 0 -14 -3 -6 -6z"/>
<path d="M3660 4285 c0 -8 7 -15 16 -15 14 0 14 3 4 15 -7 8 -14 15 -16 15 -2
0 -4 -7 -4 -15z"/>
<path d="M2590 4471 c0 -5 5 -13 10 -16 6 -3 10 -2 10 4 0 5 -4 13 -10 16 -5
3 -10 2 -10 -4z"/>
<path d="M2146 4627 c3 -10 9 -15 12 -12 3 3 0 11 -7 18 -10 9 -11 8 -5 -6z"/>
<path d="M1960 4297 c0 -21 12 -28 27 -16 19 16 16 29 -7 29 -11 0 -20 -6 -20
-13z"/>
<path d="M3385 3006 c-99 -28 -305 -155 -305 -187 0 -12 -4 -17 -11 -13 -7 4
-9 -2 -7 -17 4 -29 46 -39 60 -15 7 12 24 16 67 16 32 0 61 3 64 7 11 10 -14
33 -35 33 -30 0 -16 22 28 45 21 11 51 28 67 39 22 15 30 16 43 6 11 -10 12
-15 3 -20 -17 -11 4 -66 42 -110 28 -33 33 -35 102 -38 68 -4 75 -2 106 24 39
33 61 79 61 129 0 19 3 35 8 35 4 0 23 -14 41 -31 31 -27 33 -34 28 -75 -4
-41 -3 -44 20 -44 25 0 45 -31 25 -38 -16 -5 -15 -39 1 -45 6 -2 29 2 50 11
30 11 40 12 52 2 23 -19 30 -4 17 33 -15 43 -15 47 3 47 18 0 18 0 0 43 -18
45 -63 97 -82 97 -12 0 -10 -7 7 -36 12 -19 20 -37 17 -40 -3 -3 -8 3 -11 13
-10 30 -92 93 -156 119 -50 20 -75 24 -162 23 -57 -1 -121 -6 -143 -13z m171
-77 c10 -17 -13 -36 -27 -22 -12 12 -4 33 11 33 5 0 12 -5 16 -11z m-376 -99
c0 -5 -4 -10 -10 -10 -5 0 -10 5 -10 10 0 6 5 10 10 10 6 0 10 -4 10 -10z"/>
<path d="M1805 2800 c-4 -6 -3 -16 3 -22 6 -6 12 -6 17 2 4 6 3 16 -3 22 -6 6
-12 6 -17 -2z"/>
<path d="M2295 2699 c-4 -6 -5 -13 -2 -16 7 -7 27 6 27 18 0 12 -17 12 -25 -2z"/>
<path d="M3047 2685 c7 -19 92 -79 100 -71 4 3 4 7 2 9 -2 1 -23 19 -47 40
-44 39 -65 47 -55 22z"/>
<path d="M2900 2284 c-6 -14 -10 -28 -10 -30 0 -7 63 -87 75 -96 20 -15 24 5
5 29 -20 25 -27 53 -13 53 4 0 18 -10 31 -22 17 -16 26 -19 29 -10 3 6 9 12
14 12 14 0 11 -30 -6 -46 -21 -21 -19 -48 6 -70 12 -10 25 -30 30 -43 8 -19
12 -21 24 -11 11 9 19 8 36 -4 16 -11 27 -12 41 -5 22 12 24 39 3 39 -9 0 -15
9 -15 23 0 14 -23 47 -61 87 -34 36 -62 74 -63 85 -1 24 -46 35 -46 12 0 -8
-6 -20 -14 -26 -11 -9 -15 -8 -21 6 -5 10 -7 24 -6 31 4 23 -30 12 -39 -14z
m170 -138 c0 -2 -7 -6 -15 -10 -8 -3 -15 -1 -15 4 0 6 7 10 15 10 8 0 15 -2
15 -4z"/>
<path d="M3585 1730 c3 -5 8 -10 11 -10 2 0 4 5 4 10 0 6 -5 10 -11 10 -5 0
-7 -4 -4 -10z"/>
<path d="M1950 1576 c0 -9 5 -16 10 -16 6 0 10 4 10 9 0 6 -4 13 -10 16 -5 3
-10 -1 -10 -9z"/>
<path d="M3444 1548 c6 -49 -17 -88 -52 -88 -11 0 -25 -7 -32 -14 -6 -8 -28
-20 -48 -27 -20 -6 -43 -17 -51 -23 -12 -10 -247 -16 -346 -9 -16 1 -73 0
-125 -2 -52 -3 -102 -2 -110 1 -16 6 -157 18 -200 17 -194 -6 -332 -4 -344 6
-9 8 -16 8 -20 2 -8 -12 -60 17 -100 54 -15 14 -35 25 -45 25 -10 0 -30 13
-44 30 -29 32 -43 37 -50 18 -3 -10 -9 -10 -27 0 -12 7 -24 12 -26 9 -2 -2 12
-29 30 -60 19 -32 36 -67 38 -79 2 -13 11 -24 20 -26 9 -2 39 -23 65 -48 26
-24 54 -44 61 -44 7 0 20 -9 29 -20 10 -11 27 -20 39 -20 11 0 29 -9 38 -19
10 -11 24 -17 32 -14 10 3 14 -2 14 -20 0 -25 25 -55 37 -43 3 3 2 16 -4 28
-19 44 6 56 47 22 8 -6 34 -17 57 -23 23 -7 45 -16 48 -22 5 -7 11 -7 19 0 8
7 42 5 105 -5 58 -9 103 -12 119 -6 22 7 60 5 181 -12 19 -3 37 -10 41 -17 6
-8 17 -5 39 12 23 17 34 20 42 12 13 -13 -14 -55 -48 -74 -12 -7 -20 -16 -17
-21 8 -13 116 2 135 18 8 8 21 14 27 14 24 0 11 29 -14 32 -15 2 -32 11 -38
20 -12 20 0 36 16 20 8 -8 17 -8 30 -1 20 11 42 3 33 -11 -6 -10 25 -50 38
-50 5 0 6 7 3 15 -4 10 2 19 18 25 13 4 33 20 44 35 20 25 22 25 45 11 24 -16
37 -13 37 10 0 17 70 94 85 94 7 0 20 11 29 25 19 29 72 59 91 51 8 -3 17 -21
21 -40 5 -29 11 -36 29 -36 12 0 27 6 33 13 12 15 42 134 42 168 0 36 -33 84
-69 99 -17 7 -31 16 -31 21 0 5 -5 9 -11 9 -8 0 -9 -14 -5 -42z m-644 -188 c0
-5 -2 -10 -4 -10 -3 0 -8 5 -11 10 -3 6 -1 10 4 10 6 0 11 -4 11 -10z m-428
-16 c41 -7 57 -39 38 -75 -9 -16 -17 -19 -43 -14 -55 12 -72 40 -58 93 1 4 23
2 63 -4z m252 -41 c25 -21 31 -22 45 -10 22 20 139 31 176 17 24 -9 37 -8 67
6 63 28 118 -10 85 -59 -8 -13 -32 -28 -53 -35 -36 -11 -40 -10 -55 10 l-17
22 -32 -27 c-17 -15 -42 -27 -55 -27 -15 0 -29 -9 -36 -22 -11 -21 -12 -21
-28 -2 -34 41 -51 47 -148 51 -110 4 -133 16 -133 68 0 17 3 34 6 38 3 3 38 3
78 0 55 -5 78 -11 100 -30z m-384 5 c0 -13 -23 -5 -28 10 -2 7 2 10 12 6 9 -3
16 -11 16 -16z m878 1 c-5 -33 -34 -47 -54 -27 -14 14 -15 20 -4 32 7 9 23 16
37 16 19 0 24 -4 21 -21z m-625 -126 c-7 -2 -19 -2 -25 0 -7 3 -2 5 12 5 14 0
19 -2 13 -5z"/>
<path d="M1590 1536 c0 -15 18 -31 26 -23 7 7 -7 37 -17 37 -5 0 -9 -6 -9 -14z"/>
<path d="M1555 1450 c3 -5 8 -10 11 -10 2 0 4 5 4 10 0 6 -5 10 -11 10 -5 0
-7 -4 -4 -10z"/>
<path d="M1580 1333 c0 -7 24 -86 37 -118 2 -5 17 -35 33 -65 17 -30 30 -60
30 -66 0 -14 59 -122 71 -129 5 -4 9 -19 9 -34 0 -33 21 -81 35 -81 16 0 5 82
-13 103 -8 9 -12 20 -9 23 3 4 -5 21 -18 39 -14 17 -25 36 -25 42 0 5 -9 18
-20 28 -11 10 -20 28 -20 41 0 12 -16 46 -35 75 -37 57 -40 66 -25 89 6 10 3
21 -12 37 -21 23 -38 30 -38 16z"/>
<path d="M3706 1193 c-6 -14 -5 -15 5 -6 7 7 10 15 7 18 -3 3 -9 -2 -12 -12z"/>
<path d="M2260 1147 c0 -28 43 -72 60 -62 6 4 22 -3 35 -15 25 -24 42 -13 27
17 -5 10 -7 25 -4 33 4 11 0 11 -21 -3 -35 -23 -38 -22 -33 9 4 21 2 24 -9 14
-16 -14 -35 -5 -35 16 0 8 -4 14 -10 14 -5 0 -10 -10 -10 -23z"/>
<path d="M2435 1067 c-4 -10 -5 -21 -1 -24 10 -10 18 4 13 24 -4 17 -4 17 -12
0z"/>
<path d="M2485 1050 c2 -34 85 -68 85 -35 0 8 -7 15 -15 15 -8 0 -15 9 -15 20
0 15 -7 20 -28 20 -23 0 -28 -4 -27 -20z"/>
<path d="M2671 1046 c-16 -19 9 -37 62 -43 31 -4 46 -1 56 11 11 13 8 18 -24
33 -31 15 -38 15 -46 3 -8 -11 -12 -12 -16 -2 -6 16 -18 15 -32 -2z"/>
<path d="M2665 870 c3 -5 10 -10 16 -10 5 0 9 5 9 10 0 6 -7 10 -16 10 -8 0
-12 -4 -9 -10z"/>
<path d="M2593 847 c4 -10 7 -23 7 -28 0 -5 7 -9 15 -9 21 0 19 14 -7 36 -20
18 -21 18 -15 1z"/>
<path d="M3342 849 c2 -7 10 -15 17 -17 8 -3 12 1 9 9 -2 7 -10 15 -17 17 -8
3 -12 -1 -9 -9z"/>
<path d="M1835 770 c3 -5 8 -10 11 -10 2 0 4 5 4 10 0 6 -5 10 -11 10 -5 0 -7
-4 -4 -10z"/>
<path d="M2645 760 c3 -5 10 -10 16 -10 5 0 9 5 9 10 0 6 -7 10 -16 10 -8 0
-12 -4 -9 -10z"/>
<path d="M3346 506 c-17 -14 -24 -26 -17 -30 11 -7 51 27 51 44 0 13 0 13 -34
-14z"/>
<path d="M3276 451 c-4 -7 -5 -15 -2 -18 9 -9 19 4 14 18 -4 11 -6 11 -12 0z"/>
<path d="M2265 259 c-9 -13 64 -42 84 -33 14 6 13 8 -4 12 -11 2 -24 7 -30 12
-20 14 -44 19 -50 9z"/>
<path d="M1160 3871 c0 -5 5 -13 10 -16 6 -3 10 -2 10 4 0 5 -4 13 -10 16 -5
3 -10 2 -10 -4z"/>
</g>
</svg>
